<svg width="150" height="40" viewBox="0 0 150 40" fill="none" xmlns="http://www.w3.org/2000/svg">
  <path d="M20 0C8.954 0 0 8.954 0 20C0 31.046 8.954 40 20 40C31.046 40 40 31.046 40 20C40 8.954 31.046 0 20 0ZM20 36C11.163 36 4 28.837 4 20C4 11.163 11.163 4 20 4C28.837 4 36 11.163 36 20C36 28.837 28.837 36 20 36Z" fill="#E67E22"/>
  <path d="M20 8C13.373 8 8 13.373 8 20C8 26.627 13.373 32 20 32C26.627 32 32 26.627 32 20C32 13.373 26.627 8 20 8ZM20 28C15.582 28 12 24.418 12 20C12 15.582 15.582 12 20 12C24.418 12 28 15.582 28 20C28 24.418 24.418 28 20 28Z" fill="#E67E22"/>
  <path d="M50 15H54V30H50V15Z" fill="#E67E22"/>
  <path d="M56 15H60L66 24V15H70V30H66L60 21V30H56V15Z" fill="#E67E22"/>
  <path d="M72 15H84V18H76V21H83V24H76V27H84V30H72V15Z" fill="#E67E22"/>
  <path d="M86 15H90V27H97V30H86V15Z" fill="#E67E22"/>
  <path d="M98 15H110V18H102V21H109V24H102V27H110V30H98V15Z" fill="#E67E22"/>
  <path d="M112 15H116V21H122V15H126V30H122V24H116V30H112V15Z" fill="#E67E22"/>
  <path d="M128 15H140V18H132V21H139V24H132V27H140V30H128V15Z" fill="#E67E22"/>
  <path d="M142 15H146V27H153V30H142V15Z" fill="#E67E22"/>
  <path d="M50 10H54V14H50V10Z" fill="#E67E22"/>
</svg>

